<svg width="512" height="153" viewBox="0 0 512 153" fill="none" xmlns="http://www.w3.org/2000/svg">
<g clip-path="url(#clip0_48_547)">
<mask id="mask0_48_547" style="mask-type:luminance" maskUnits="userSpaceOnUse" x="97" y="6" width="318" height="140">
<path d="M415 6H97V146H415V6Z" fill="white"/>
</mask>
<g mask="url(#mask0_48_547)">
<path d="M126.317 129.146V63.2776C134.922 75.2137 159.124 101.936 175.181 121.27C191.933 138.452 203.801 126.28 204.497 115.545V8.15183H175.181V74.0202C165.173 63.0423 141.397 36.362 126.317 17.4571C113.056 -1.16189 98.3933 11.0098 97 20.3152V129.138H126.317V129.146Z" fill="#2D6DF6"/>
<path d="M261.746 7.42908H231.027V129.138H261.746V7.42908Z" fill="#2D6DF6"/>
<path fill-rule="evenodd" clip-rule="evenodd" d="M371.644 123.808C362.694 129.029 352.351 132.004 341.319 132.004C307.396 132.004 279.891 103.794 279.891 69.0023C279.891 34.2102 307.396 6 341.319 6C375.242 6 402.747 34.2102 402.747 69.0023C402.747 81.0563 399.444 92.3287 393.715 101.903L414.992 123.724L393.273 146L371.636 123.808H371.644ZM373.431 69.0023C373.431 87.1924 359.055 101.936 341.319 101.936C323.583 101.936 309.208 87.1924 309.208 69.0023C309.208 50.8118 323.583 36.0679 341.319 36.0679C359.055 36.0679 373.431 50.8118 373.431 69.0023Z" fill="#2D6DF6"/>
</g>
</g>
<defs>
<clipPath id="clip0_48_547">
<rect width="318" height="140" fill="white" transform="translate(97 6)"/>
</clipPath>
</defs>
</svg>
